<svg width="280" height="200" viewBox="0 0 280 200" fill="none" xmlns="http://www.w3.org/2000/svg">
  <defs>
    <linearGradient id="pc-bar" x1="0" y1="0" x2="0" y2="1">
      <stop offset="0" stop-color="#6ea3fb" />
      <stop offset="1" stop-color="#4a8df8" />
    </linearGradient>
    <linearGradient id="pc-badge" x1="0" y1="0" x2="1" y2="1">
      <stop offset="0" stop-color="#34d9a0" />
      <stop offset="1" stop-color="#1dc683" />
    </linearGradient>
    <linearGradient id="pc-avatar1" x1="0" y1="0" x2="1" y2="1">
      <stop offset="0" stop-color="#6ea3fb" />
      <stop offset="1" stop-color="#4a8df8" />
    </linearGradient>
    <linearGradient id="pc-avatar2" x1="0" y1="0" x2="1" y2="1">
      <stop offset="0" stop-color="#34d9a0" />
      <stop offset="1" stop-color="#1dc683" />
    </linearGradient>
    <linearGradient id="pc-avatar3" x1="0" y1="0" x2="1" y2="1">
      <stop offset="0" stop-color="#ab8bff" />
      <stop offset="1" stop-color="#8f6bff" />
    </linearGradient>
    <filter id="pc-shadow" x="-40%" y="-40%" width="180%" height="180%">
      <feDropShadow dx="0" dy="10" stdDeviation="14" flood-color="#0a1628" flood-opacity="0.16" />
    </filter>
    <radialGradient id="pc-glow" cx="0.5" cy="0.5" r="0.5">
      <stop offset="0" stop-color="#4a8df8" stop-opacity="0.22" />
      <stop offset="1" stop-color="#4a8df8" stop-opacity="0" />
    </radialGradient>
  </defs>

  <circle cx="205" cy="55" r="85" fill="url(#pc-glow)" />

  <g filter="url(#pc-shadow)">
    <rect x="18" y="28" width="204" height="132" rx="16" fill="#ffffff" />
    <rect x="18.5" y="28.5" width="203" height="131" rx="15.5" stroke="#e7ebf2" />
  </g>

  <circle cx="36" cy="46" r="3" fill="#dfe4ee" />
  <circle cx="48" cy="46" r="3" fill="#dfe4ee" />
  <circle cx="60" cy="46" r="3" fill="#dfe4ee" />
  <line x1="18" y1="60" x2="222" y2="60" stroke="#eef1f7" stroke-width="1" />

  <g>
    <rect x="40" y="115" width="16" height="30" rx="3" fill="url(#pc-bar)" />
    <rect x="68" y="95" width="16" height="50" rx="3" fill="url(#pc-bar)" />
    <rect x="96" y="105" width="16" height="40" rx="3" fill="url(#pc-bar)" />
    <rect x="124" y="75" width="16" height="70" rx="3" fill="url(#pc-bar)" />
    <rect x="152" y="85" width="16" height="60" rx="3" fill="url(#pc-bar)" />
    <rect x="180" y="70" width="16" height="75" rx="3" fill="url(#pc-bar)" />
  </g>

  <polyline points="48,110 76,90 104,100 132,68 160,80 188,64" fill="none" stroke="#1dc683" stroke-width="2.5" stroke-linecap="round" stroke-linejoin="round" opacity="0.85" />
  <circle cx="48" cy="110" r="3.5" fill="#ffffff" stroke="#1dc683" stroke-width="2" />
  <circle cx="76" cy="90" r="3.5" fill="#ffffff" stroke="#1dc683" stroke-width="2" />
  <circle cx="104" cy="100" r="3.5" fill="#ffffff" stroke="#1dc683" stroke-width="2" />
  <circle cx="132" cy="68" r="3.5" fill="#ffffff" stroke="#1dc683" stroke-width="2" />
  <circle cx="160" cy="80" r="3.5" fill="#ffffff" stroke="#1dc683" stroke-width="2" />
  <circle cx="188" cy="64" r="3.5" fill="#ffffff" stroke="#1dc683" stroke-width="2" />

  <g filter="url(#pc-shadow)">
    <rect x="176" y="10" width="76" height="28" rx="14" fill="url(#pc-badge)" />
  </g>
  <path d="M190 24l5-6 4 4 7-9" stroke="#ffffff" stroke-width="2" stroke-linecap="round" stroke-linejoin="round" fill="none" />
  <text x="211" y="28" font-family="system-ui, -apple-system, 'Segoe UI', sans-serif" font-size="12" font-weight="700" fill="#ffffff">+18%</text>

  <g filter="url(#pc-shadow)">
    <circle cx="40" cy="182" r="13" fill="url(#pc-avatar1)" stroke="#ffffff" stroke-width="2.5" />
    <circle cx="58" cy="182" r="13" fill="url(#pc-avatar2)" stroke="#ffffff" stroke-width="2.5" />
    <circle cx="76" cy="182" r="13" fill="url(#pc-avatar3)" stroke="#ffffff" stroke-width="2.5" />
  </g>
  <text x="98" y="186" font-family="system-ui, -apple-system, 'Segoe UI', sans-serif" font-size="11.5" font-weight="600" fill="#8894a8">+42 served this week</text>
</svg>
