<svg xmlns="http://www.w3.org/2000/svg" xmlns:xlink="http://www.w3.org/1999/xlink" viewBox="0 0 1920 1080"><defs><symbol id="h" viewBox="0 0 98.618 127.063"><path fill="#ffbea3" d="m67.50159,99.03557c-1.64483,1.30092-3.83869,4.09787-4.70768,6.99452-2.20042,7.33474,3.83269,7.66538,3.83269,7.66538-3.66737,8.80169-22.0429,23.99423-41.41216,2.05183l3.08527-36.54603c18.84836-17.6841,41.06256-2.92991,39.20188,19.8343Z"/><path fill="#3d27c1" d="m84.8951,5.07656s-27.04779-9.20344-50.51612-2.82638C1.26609,11.2087-3.4652,24.70494,3.00052,38.27853c-9.21551,12.19452,5.62527,25.34921,6.83486,23.98013,1.26797-11.4411,18.12877-24.82328,30.20424-3.98449,0,0,6.50677-2.15452,7.4798-3.10197-2.11832-9.36261-8.92943-14.80016,4.55258-18.95975.14608-.06248,6.40846-1.44707,6.06753-3.17763.23255-1.03899-3.72343-13.28837-3.72343-13.28837,2.27243-.20153,24.15965-1.31579,29.27612-2.69499"/><path fill="#ffbea3" d="m33.5313,81.00974c-1.39252.28086-2.7713.47739-4.11013.56966-8.74979.63317-16.22898-2.98348-19.82499-14.89181-2.36275-21.74723,22.8851-26.18994,30.45181-8.40747,1.96599-.7919,2.47158-1.1769,7.1392-3.03972-1.35658-4.41244-3.86319-9.44551-4.35181-14.98175,3.26547-3.48192,10.95483-4.07068,15-6,.38042-4.8674-2.92896-12.29985-3.42381-14.50816,11.01174-1.17123,18.42065-2.08029,22.24838-1.3388,2.62844,1.66623,5.07646,9.73684,11.36463,26.73448,7.27772-6.05987,16.83692,7.98236,5.03298,13.6821,1.00192,11.46516,1.33064,23.0655-5.93566,32.03387-4.15365,4.80088-9.45473,8.54849-20.33063,7.25925,0,0-.14209.0803-.40062.28184"/><path fill="none" stroke="#231f20" stroke-linecap="round" stroke-linejoin="round" stroke-width="2" d="m45.95521,91.03983s21.19459,12.08932,34.80096,5.01415"/><path fill="none" stroke="#231f20" stroke-linecap="round" stroke-linejoin="round" stroke-width="2" d="m67.59842,66.42307c2.42262,6.22872,9.16792,8.56077,11.52957,7.66614"/><path fill="none" stroke="#231f20" stroke-linecap="round" stroke-linejoin="round" stroke-width="2" d="m72.09853,42.71947c2.28394-1.24424,4.53173-1.01549,4.53173-1.01549"/><path fill="none" stroke="#231f20" stroke-linecap="round" stroke-linejoin="round" stroke-width="2" d="m65.20087,33.8326c2.0311-4.66557,4.87635-5.85136,4.87635-5.85136"/><path fill="none" stroke="#231f20" stroke-linecap="round" stroke-linejoin="round" stroke-width="2" d="m18.33164,58.42839c8.01043-5.09021,14.51549,3.51906,14.70404,11.71344"/><path fill="none" stroke="#231f20" stroke-linecap="round" stroke-linejoin="round" stroke-width="2" d="m21.68382,70.12284c.91736-7.34273,7.63633-10.06967,7.63633-10.06967"/><path fill="none" stroke="#231f20" stroke-linecap="round" stroke-linejoin="round" stroke-width="2" d="m71.59276,8.60562c8.176.54801,13.81401-1.07563,13.81401-1.07563"/><path fill="none" stroke="#231f20" stroke-linecap="round" stroke-linejoin="round" stroke-width="2" d="m70.18661,12.94851c9.86108.71847,14.45362-.05276,14.45362-.05276"/><path fill="none" stroke="#231f20" stroke-linecap="round" stroke-linejoin="round" stroke-width="2" d="m44.92222,21.90346c8.76764-4.16042,32.52037-2.34426,38.73403-5.0189"/></symbol><symbol id="i" viewBox="0 0 391.294 343.427"><path fill="#ffbea3" d="m390.89572,4.67612l-30.68633-.10157-.0286.00867c1.22978-1.77445,1.21166-3.58327,1.21166-3.58327,0,0-19.1344-.2887-25.0897-.05098-3.62847.14468-12.27843,7.82151-23.04927,18.28271l14.45104,17.09892c2.69468-2.70462,6.55767-6.64351,6.55767-6.64351l13.99301,1.81259-.10209-.13726.13356.14137-.03147-.00411.02508.03378-.21939,1.02385,20.64813.10957,5.50454-20.81928,17.08079-.80717-.39865-6.36431Z"/><path fill="none" stroke="#231f20" stroke-linecap="round" stroke-linejoin="round" stroke-width="2" d="m361.39237,1s.14904,5.19871-6.05167,6.61581c-6.20071,1.4171-10.87861,1.4284-10.87861,1.4284"/><polyline fill="none" stroke="#231f20" stroke-linecap="round" stroke-linejoin="round" stroke-width="2" points="378.259 10.811 352.276 12.884 348.061 32.557 368.709 32.667 374.213 11.848"/><line x1="350.976" x2="372.109" y1="19.135" y2="18.655" fill="none" stroke="#231f20" stroke-linecap="round" stroke-linejoin="round" stroke-width="2"/><line x1="349.578" x2="369.941" y1="25.857" y2="25.666" fill="none" stroke="#231f20" stroke-linecap="round" stroke-linejoin="round" stroke-width="2"/><path fill="none" stroke="#231f20" stroke-linecap="round" stroke-linejoin="round" stroke-width="2" d="m348.15613,8.8024s-2.14298,10.53072-6.59823,15.3869"/><line x1="322.57" x2="329.186" y1="19.734" y2="23.332" fill="none" stroke="#231f20" stroke-linecap="round" stroke-linejoin="round" stroke-width="2"/><path fill="#ffbea3" d="m314.88053,17.47932s-15.35735,15.28468-25.44189,25.39856c-25.80874,25.88394-64.98688,39.14366-64.98688,39.14366v.00005h0v-.00005s-42.36075,5.05528-42.36075,5.05528l6.54985,47.55616,45.19852-13.74656s26.25026-4.13902,60.77892-44.94059c16.58995-19.60391,35.37585-42.23454,35.37585-42.23454"/><path fill="#ff6180" d="m126.58313,160.70023l35.94357-7.71996,45.88441-10.27577-6.60058-60.54498-92.92435,2.75325-.00004.00005c-19.5942,23.72147-12.61949,59.4351,14.45996,74.04142l3.23703,1.74601Z"/><path fill="#ff6180" d="m150.41179,123.74139c15.89423,65.37251,29.08325,193.02577,29.08325,193.02577,0,0-27.92206,23.58916-80.39652,26.43244-52.47416,2.84357-99.09852-21.86754-99.09852-21.86754,0,0,30.0999-186.88995,42.73446-218.18198,12.63427-31.29206,25.60656-15.40513,25.60656-15.40513,0,0,4.89674,4.15011,19.89674,4.15011,13.49537,0,21-7,21-7,0,0,31.62295-.43696,41.17402,38.84634Z"/><path fill="none" stroke="#231f20" stroke-linecap="round" stroke-linejoin="round" stroke-width="2" d="m150.41179,123.74139c3.88226,15.96764,7.60313,35.65101,11.00983,56.2823"/><polygon fill="#5ca4ff" points="249.156 229.678 250.317 234.982 345.855 206.065 346.839 198.749 249.156 229.678"/><polygon fill="#e5edff" points="210.696 215.838 306.432 184.658 343.792 198.674 244.085 230.569 210.696 215.838"/><path fill="#231f20" d="m306.40875,185.71751l34.33615,12.88123-96.60303,30.90213-30.64941-13.52174,92.91629-30.26162m.04669-2.1186l-98.5564,32.09852,36.12964,15.93948,102.81076-32.88791-40.384-15.15009h0Z"/><polygon fill="#5ca4ff" points="208.001 215.54 206.468 220.905 222.156 230.738 227.156 223.738 208.001 215.54"/><path fill="#ffbea3" d="m89.95461,170.3139l19.84653,54.82509s83.65338,11.41994,91.12269,8.70097c7.46927-2.71871,19.89752-10.51502,26.30313-12.86661,6.40586-2.35126,26.36766-4.48232,31.74008-6.56916,5.37242-2.08685,7.87378-2.94341,10.06993-1.5143,2.19585,1.42906,1.05655,7.10482-2.584,8.07199-3.64089.96743-12.84626.54716-15.00988,5.65506-2.16387,5.10753-1.12578,8.36516-1.12578,8.36516l35.94153-11.17111s-12.44628,19.02892-22.82695,22.00356c-10.38042,2.97497-42.27835,4.22196-59.58966,9.65348-17.31131,5.43152-114.57232,21.45249-123.46932,17.17865-8.89701-4.27383-39.09342-82.78607-39.09342-82.78607l48.67514-19.54671Z"/><path fill="#ff6180" d="m64.2756,84.84495s-25.00533-15.44499-38.37331,19.29796,3.76163,102.72132,3.76163,102.72132l70.73069-31.10836-30.85726-74.24102"/><path fill="none" stroke="#231f20" stroke-linecap="round" stroke-linejoin="round" stroke-width="2" d="m25.90228,104.14291c-13.36798,34.74295,3.76163,102.72132,3.76163,102.72132l70.73069-31.10836-30.85726-74.24102"/><line x1="249.156" x2="285.664" y1="235.446" y2="223.996" fill="none" stroke="#231f20" stroke-linecap="round" stroke-linejoin="round" stroke-width="2"/></symbol><symbol id="e" viewBox="0 0 395.15 119.594"><rect width="395.15" height="119.594" fill="#ffeef3" rx="16.946" ry="16.946"/><path fill="#5ca4ff" d="m395.15018,25.87709v-8.93102c0-9.35904-7.58703-16.94607-16.94611-16.94607H16.94611C7.58703,0,0,7.58703,0,16.94607v8.93102h395.15018Z"/><polygon fill="#3d27c1" points="37.928 57.801 46.633 105.921 126.442 105.921 117.738 57.801 37.928 57.801"/><rect width="78.595" height="58.434" x="46.894" y="42.544" fill="#ffeef3" stroke="#231f20" stroke-linecap="round" stroke-linejoin="round" stroke-width="2.3"/><polygon fill="#5ca4ff" points="96.147 50.931 87.565 61.713 54.409 61.713 46.894 105.921 126.704 105.921 136.052 50.931 96.147 50.931"/><rect width="78.217" height="17.684" x="162.237" y="42.85" fill="#3d27c1"/><rect width="44.209" height="11.903" x="162.237" y="69.376" fill="#5ca4ff"/><rect width="118.685" height="11.903" x="215.969" y="69.376" fill="#5ca4ff"/><rect width="28.566" height="11.903" x="162.237" y="91.141" fill="#5ca4ff"/><rect width="28.566" height="11.903" x="200.325" y="91.141" fill="#5ca4ff"/><rect width="78.897" height="11.903" x="239.094" y="91.141" fill="#5ca4ff"/><rect width="38.211" height="10.375" x="29.979" y="8.742" fill="#3d27c1" rx="5.188" ry="5.188"/><circle cx="20.282" cy="13.988" r="5.245" fill="#3d27c1"/></symbol><symbol id="d" viewBox="0 0 285.152 167.384"><rect width="285.152" height="167.384" fill="#ffeef3" rx="25.531" ry="25.531"/><line x1="26.811" x2="258.341" y1="128.382" y2="128.382" fill="none" stroke="#0e2033" stroke-linecap="round" stroke-linejoin="round" stroke-width="2.3"/><line x1="87.434" x2="87.434" y1="100.63" y2="128.382" fill="none" stroke="#0e2033" stroke-linecap="round" stroke-linejoin="round" stroke-width="2.3"/><line x1="115.538" x2="115.538" y1="79.774" y2="128.382" fill="none" stroke="#0e2033" stroke-linecap="round" stroke-linejoin="round" stroke-width="2.3"/><line x1="143.643" x2="143.643" y1="84.861" y2="128.382" fill="none" stroke="#0e2033" stroke-linecap="round" stroke-linejoin="round" stroke-width="2.3"/><line x1="171.748" x2="171.748" y1="61.971" y2="128.382" fill="none" stroke="#0e2033" stroke-linecap="round" stroke-linejoin="round" stroke-width="2.3"/><line x1="199.852" x2="199.852" y1="61.971" y2="128.382" fill="none" stroke="#0e2033" stroke-linecap="round" stroke-linejoin="round" stroke-width="2.3"/><line x1="227.957" x2="227.957" y1="48.491" y2="128.382" fill="none" stroke="#0e2033" stroke-linecap="round" stroke-linejoin="round" stroke-width="2.3"/><polygon fill="#5ca4ff" points="214.153 30.638 220.717 38.705 189.633 64.398 170.702 53.523 135.446 82.663 111.129 69.187 40.16 127.845 59.023 127.845 112.47 83.669 136.787 97.145 171.938 68.092 190.869 78.967 228.303 48.026 234.528 55.675 245.641 25.821 214.153 30.638"/></symbol><symbol id="b" viewBox="0 0 636.226 384.663"><path fill="#5ca4ff" d="m636.22629.92239h-.922v-.92239H.11545v.92239h-.11545v306.12615h.11545v.922h635.18884v-.922h.922V.92239Zm-370.05695,136.97716h51.02161v32.17145h-51.02161v-32.17145Zm-1.84399,32.17145h-51.02005v-32.17145h51.02005v32.17145Zm54.71-32.17145h51.02161v32.17145h-51.02161v-32.17145Zm52.86561,0h51.01967v32.17145h-51.01967v-32.17145Zm0-1.844v-32.16988h51.01967v32.16988h-51.01967Zm-1.844,0h-51.02161v-32.16988h51.02161v32.16988Zm-52.86601,0h-51.02161v-32.16988h51.02161v32.16988Zm-52.8656,0h-51.02005v-32.16988h51.02005v32.16988Zm-52.86405,0h-51.02161v-32.16988h51.02161v32.16988Zm0,1.844v32.17145h-51.02161v-32.17145h51.02161Zm0,34.01584v32.16949h-51.02161v-32.16949h51.02161Zm1.844,0h51.02005v32.16949h-51.02005v-32.16949Zm52.86404,0h51.02161v32.16949h-51.02161v-32.16949Zm52.86601,0h51.02161v32.16949h-51.02161v-32.16949Zm52.86561,0h51.01967v32.16949h-51.01967v-32.16949Zm52.86405,0h51.02161v32.16949h-51.02161v-32.16949Zm0-1.8444v-32.17145h51.02161v32.17145h-51.02161Zm0-34.01545v-32.16988h51.02161v32.16988h-51.02161Zm0-34.01389v-32.16988h51.02161v32.16988h-51.02161Zm-1.84438,0h-51.01967v-32.16988h51.01967v32.16988Zm-52.86367,0h-51.02161v-32.16988h51.02161v32.16988Zm-52.86601,0h-51.02161v-32.16988h51.02161v32.16988Zm-52.8656,0h-51.02005v-32.16988h51.02005v32.16988Zm-52.86405,0h-51.02161v-32.16988h51.02161v32.16988Zm-52.86562,0h-51.02161v-32.16988h51.02161v32.16988Zm0,1.844v32.16988h-51.02161v-32.16988h51.02161Zm0,34.01389v32.17145h-51.02161v-32.17145h51.02161Zm0,34.01584v32.16949h-51.02161v-32.16949h51.02161Zm0,34.01349v32.16988h-51.02161v-32.16988h51.02161Zm1.844,0h51.02161v32.16988h-51.02161v-32.16988Zm52.86562,0h51.02005v32.16988h-51.02005v-32.16988Zm52.86404,0h51.02161v32.16988h-51.02161v-32.16988Zm52.86601,0h51.02161v32.16988h-51.02161v-32.16988Zm52.86561,0h51.01967v32.16988h-51.01967v-32.16988Zm52.86405,0h51.02161v32.16988h-51.02161v-32.16988Zm52.86561,0h51.02161v32.16988h-51.02161v-32.16988Zm0-1.844v-32.16949h51.02161v32.16949h-51.02161Zm0-34.01389v-32.17145h51.02161v32.17145h-51.02161Zm0-34.01545v-32.16988h51.02161v32.16988h-51.02161Zm0-34.01389v-32.16988h51.02161v32.16988h-51.02161Zm0-34.01389v-32.16949h51.02161v32.16949h-51.02161Zm-1.844,0h-51.02161v-32.16949h51.02161v32.16949Zm-52.86599,0h-51.01967v-32.16949h51.01967v32.16949Zm-52.86367,0h-51.02161v-32.16949h51.02161v32.16949Zm-52.86601,0h-51.02161v-32.16949h51.02161v32.16949Zm-52.8656,0h-51.02005v-32.16949h51.02005v32.16949Zm-52.86405,0h-51.02161v-32.16949h51.02161v32.16949Zm-52.86562,0h-51.02161v-32.16949h51.02161v32.16949Zm-52.86601,0h-51.01966v-32.16949h51.01966v32.16949Zm0,1.844v32.16988h-51.01966v-32.16988h51.01966Zm0,34.01389v32.16988h-51.01966v-32.16988h51.01966Zm0,34.01389v32.17145h-51.01966v-32.17145h51.01966Zm0,34.01584v32.16949h-51.01966v-32.16949h51.01966Zm0,34.01349v32.16988h-51.01966v-32.16988h51.01966Zm0,34.01389v32.16988h-51.01966v-32.16988h51.01966Zm1.8444,0h51.02161v32.16988h-51.02161v-32.16988Zm52.86562,0h51.02161v32.16988h-51.02161v-32.16988Zm52.86562,0h51.02005v32.16988h-51.02005v-32.16988Zm52.86404,0h51.02161v32.16988h-51.02161v-32.16988Zm52.86601,0h51.02161v32.16988h-51.02161v-32.16988Zm52.86561,0h51.01967v32.16988h-51.01967v-32.16988Zm52.86405,0h51.02161v32.16988h-51.02161v-32.16988Zm52.86561,0h51.02161v32.16988h-51.02161v-32.16988Zm52.86602,0h51.01964v32.16988h-51.01964v-32.16988Zm0-1.844v-32.16988h51.01964v32.16988h-51.01964Zm0-34.01389v-32.16949h51.01964v32.16949h-51.01964Zm0-34.01389v-32.17145h51.01964v32.17145h-51.01964Zm0-34.01545v-32.16988h51.01964v32.16988h-51.01964Zm0-34.01389v-32.16988h51.01964v32.16988h-51.01964Zm0-34.01389v-32.16949h51.01964v32.16949h-51.01964Zm0-34.01389V1.8444h51.01964v32.16949h-51.01964Zm-1.84441,0h-51.02161V1.8444h51.02161v32.16949Zm-52.86561,0h-51.02161V1.8444h51.02161v32.16949Zm-52.86599,0h-51.01967V1.8444h51.01967v32.16949Zm-52.86367,0h-51.02161V1.8444h51.02161v32.16949Zm-52.86601,0h-51.02161V1.8444h51.02161v32.16949Zm-52.8656,0h-51.02005V1.8444h51.02005v32.16949Zm-52.86405,0h-51.02161V1.8444h51.02161v32.16949Zm-52.86562,0h-51.02161V1.8444h51.02161v32.16949Zm-52.86601,0h-51.01966V1.8444h51.01966v32.16949Zm-52.86405,0H1.844V1.8444h51.02161v32.16949Zm0,1.8444v32.16949H1.844v-32.16949h51.02161Zm0,34.01349v32.16988H1.844v-32.16988h51.02161Zm0,34.01389v32.16988H1.844v-32.16988h51.02161Zm0,34.01389v32.17145H1.844v-32.17145h51.02161Zm0,34.01584v32.16949H1.844v-32.16949h51.02161Zm0,34.01349v32.16988H1.844v-32.16988h51.02161Zm0,34.01389v32.16988H1.844v-32.16988h51.02161Zm0,34.01389v32.16988H1.844v-32.16988h51.02161Zm1.8444,0h51.01966v32.16988h-51.01966v-32.16988Zm52.86405,0h51.02161v32.16988h-51.02161v-32.16988Zm52.86562,0h51.02161v32.16988h-51.02161v-32.16988Zm52.86562,0h51.02005v32.16988h-51.02005v-32.16988Zm52.86404,0h51.02161v32.16988h-51.02161v-32.16988Zm52.86601,0h51.02161v32.16988h-51.02161v-32.16988Zm52.86561,0h51.01967v32.16988h-51.01967v-32.16988Zm52.86405,0h51.02161v32.16988h-51.02161v-32.16988Zm52.86561,0h51.02161v32.16988h-51.02161v-32.16988Zm52.86602,0h51.01964v32.16988h-51.01964v-32.16988Zm52.86364,0h51.02161v32.16988h-51.02161v-32.16988Zm0-1.844v-32.16988h51.02161v32.16988h-51.02161Zm0-34.01389v-32.16988h51.02161v32.16988h-51.02161Zm0-34.01389v-32.16949h51.02161v32.16949h-51.02161Zm0-34.01389v-32.17145h51.02161v32.17145h-51.02161Zm0-34.01545v-32.16988h51.02161v32.16988h-51.02161Zm0-34.01389v-32.16988h51.02161v32.16988h-51.02161Zm0-34.01389v-32.16949h51.02161v32.16949h-51.02161Zm0-34.01389V1.8444h51.02161v32.16949h-51.02161Z"/><path fill="#fff" d="m634.53775,307.04854v-132.77766c-52.87031,0-52.87031,40.57082-105.74062,40.57082s-52.86992-161.05448-105.74023-161.05448c-52.86288,0-52.86288,161.05448-105.72575,161.05448s-52.86443-70.07684-105.72887-70.07684-52.86209,70.07684-105.72419,70.07684S53.01678,157.05887.15546,157.05887v149.98967h634.38228Z" opacity=".7"/><path fill="#3d27c1" d="m635.26241,170.595c-27.65497.01135-41.59066,10.70321-55.0677,21.04442-13.0853,10.03988-25.44506,19.52484-50.63183,19.52484-23.77129,0-36.78654-39.65117-49.37484-77.99643-13.40503-40.83459-27.26558-83.05883-56.36539-83.05883-29.09393,0-42.95331,42.22424-56.35639,83.05687-12.58595,38.34722-25.60121,77.99839-49.36936,77.99839-24.59937,0-36.9016-16.30879-49.92781-33.57597-13.5377-17.94499-27.53522-36.50165-55.79989-36.50165-28.26272,0-42.26181,18.55666-55.79794,36.50165-13.02426,17.26719-25.32648,33.57597-49.92585,33.57597-24.81148,0-37.11919-13.45356-50.14892-27.69528-13.40934-14.65693-27.29063-29.78817-54.83524-30.06172v7.35527c24.3043.27198,36.513,13.57448,49.40889,27.66984,13.53222,14.79116,27.52426,30.08716,55.57527,30.08716,28.26233,0,42.26181-18.55705,55.79794-36.50165,13.02426-17.26719,25.32648-33.57597,49.92585-33.57597s36.90198,16.30879,49.92819,33.57597c13.5377,17.9446,27.53522,36.50165,55.79951,36.50165,29.09589,0,42.95527-42.22424,56.35834-83.05883,12.58595-38.34526,25.59964-77.99643,49.36741-77.99643,23.77168,0,36.78889,39.65117,49.3768,77.99839,13.40503,40.83263,27.26597,83.05687,56.36343,83.05687,27.68432,0,41.62627-10.6989,55.11035-21.04559,13.07748-10.03401,25.43215-19.5131,50.58918-19.52406v-7.35488Z"/><circle cx="424.534" cy="55.686" r="26.126" fill="#5ca4ff"/><path fill="#ff6180" d="m436.50802,55.68602c0-6.61329-5.36101-11.97428-11.9743-11.97428-6.6129,0-11.97389,5.36099-11.97389,11.97428s5.36099,11.97428,11.97389,11.97428c6.61329,0,11.9743-5.36099,11.9743-11.97428Z"/><circle cx="59.678" cy="343.653" r="6.516" fill="#3d27c1"/><circle cx="60.062" cy="377.764" r="6.516" fill="#ff6180"/><rect width="42.16" height="13.031" x="76.542" y="337.521" fill="#5ca4ff" rx="6.516" ry="6.516"/><rect width="19.163" height="13.031" x="125.712" y="337.778" fill="#5ca4ff" rx="6.516" ry="6.516"/><rect width="78.187" height="13.031" x="151.774" y="337.778" fill="#5ca4ff" rx="6.516" ry="6.516"/><rect width="52.125" height="13.031" x="76.925" y="371.631" fill="#5ca4ff" rx="6.516" ry="6.516"/><rect width="59.79" height="13.031" x="137.21" y="371.506" fill="#5ca4ff" rx="6.516" ry="6.516"/><circle cx="323.367" cy="343.653" r="6.516" fill="#ffd12e"/><circle cx="323.75" cy="377.764" r="6.516" fill="#5ca4ff"/><rect width="98.117" height="13.031" x="340.231" y="337.521" fill="#5ca4ff" rx="6.516" ry="6.516"/><rect width="19.163" height="13.031" x="445.358" y="337.778" fill="#5ca4ff" rx="6.516" ry="6.516"/><rect width="22.23" height="13.031" x="340.614" y="371.631" fill="#5ca4ff" rx="6.516" ry="6.516"/><rect width="138.743" height="13.031" x="371.004" y="371.506" fill="#5ca4ff" rx="6.516" ry="6.516"/></symbol><symbol id="a" viewBox="0 0 720.604 527.815"><path fill="#e5edff" d="m40.59077,0h639.42256C702.41599,0,720.60411,18.18812,720.60411,40.59078v446.6339c0,22.40266-18.18812,40.59077-40.59077,40.59077H40.59044C18.18796,527.81545,0,509.62748,0,487.22501V40.59078C0,18.18812,18.18812,0,40.59077,0Z"/><path fill="#5ca4ff" d="m720.60411,65.70909v-25.11866c0-22.41748-18.17289-40.59043-40.59038-40.59043H40.59076C18.17309,0,0,18.17308,0,40.59075v25.11833h720.6041Z"/><path fill="#3d27c1" d="m586.97161,32.6817c0,4.02306-3.26124,7.28451-7.28429,7.28451s-7.28455-3.26146-7.28455-7.28451,3.26149-7.28429,7.28455-7.28429,7.28429,3.26124,7.28429,7.28429Z"/><path fill="#3d27c1" d="m623.51298,32.6817c0,4.02306-3.26149,7.28451-7.28455,7.28451s-7.28455-3.26146-7.28455-7.28451,3.26149-7.28429,7.28455-7.28429,7.28455,3.26124,7.28455,7.28429Z"/><path fill="#3d27c1" d="m660.82063,32.6817c0,4.02306-3.26124,7.28451-7.28455,7.28451-4.02306,0-7.28429-3.26146-7.28429-7.28451s3.26124-7.28429,7.28429-7.28429c4.02331,0,7.28455,3.26124,7.28455,7.28429Z"/></symbol><symbol id="c" viewBox="0 0 251.806 274.277"><rect width="219.535" height="257.734" x=".001" y="16.542" fill="#3d27c1"/><path fill="#ffeef3" d="m.0005,16.54244c-.08525,93.2243,10.79167,173.144,25.57613,252.21846h226.22928c-25.13937-80.06103-35.85764-163.93295-29.87027-252.21846H.0005Z"/><path fill="none" stroke="#231f20" stroke-miterlimit="10" stroke-width="2.3" d="m16.33822,16.54244c0-8.50121,6.89142-15.39263,15.39266-15.39263s15.39261,6.89142,15.39261,15.39263-6.89142,15.39263-15.39261,15.39263"/><path fill="none" stroke="#231f20" stroke-miterlimit="10" stroke-width="2.3" d="m36.35461,16.54244c0-8.50121,6.89142-15.39263,15.39263-15.39263s15.39263,6.89142,15.39263,15.39263-6.89142,15.39263-15.39263,15.39263"/><path fill="none" stroke="#231f20" stroke-miterlimit="10" stroke-width="2.3" d="m56.37101,16.54244c0-8.50121,6.89142-15.39263,15.39266-15.39263s15.39261,6.89142,15.39261,15.39263-6.89142,15.39263-15.39261,15.39263"/><path fill="none" stroke="#231f20" stroke-miterlimit="10" stroke-width="2.3" d="m76.38741,16.54244c0-8.50121,6.89142-15.39263,15.39263-15.39263s15.39263,6.89142,15.39263,15.39263-6.89142,15.39263-15.39263,15.39263"/><path fill="none" stroke="#231f20" stroke-miterlimit="10" stroke-width="2.3" d="m96.40381,16.54244c0-8.50121,6.89142-15.39263,15.39266-15.39263s15.3926,6.89142,15.3926,15.39263-6.89142,15.39263-15.3926,15.39263"/><path fill="none" stroke="#231f20" stroke-miterlimit="10" stroke-width="2.3" d="m116.4202,16.54244c0-8.50121,6.89142-15.39263,15.39263-15.39263s15.39263,6.89142,15.39263,15.39263-6.89142,15.39263-15.39263,15.39263"/><path fill="none" stroke="#231f20" stroke-miterlimit="10" stroke-width="2.3" d="m136.4366,16.54244c0-8.50121,6.89142-15.39263,15.39267-15.39263s15.3926,6.89142,15.3926,15.39263-6.89142,15.39263-15.3926,15.39263"/><path fill="none" stroke="#231f20" stroke-miterlimit="10" stroke-width="2.3" d="m156.453,16.54244c0-8.50121,6.89142-15.39263,15.39263-15.39263s15.39263,6.89142,15.39263,15.39263-6.89142,15.39263-15.39263,15.39263"/><path fill="none" stroke="#231f20" stroke-miterlimit="10" stroke-width="2.3" d="m176.46939,16.54244c0-8.50121,6.89142-15.39263,15.39267-15.39263s15.3926,6.89142,15.3926,15.39263-6.89142,15.39263-15.3926,15.39263"/><rect width="188.569" height="29.104" x="17.512" y="42.108" fill="#ff6180"/><path fill="#5ca4ff" d="m226.00958,239.88951l-187.02441.46639c-12.63442-58.3774-19.86139-108.53579-17.78977-161.03524h182.05461c-.96602,45.85604,6.81167,99.62472,22.75956,160.56885Z"/><path fill="none" stroke="#fff" stroke-linecap="round" stroke-linejoin="round" stroke-width="2.3" d="m20.42493,114.05542h182.17041"/><path fill="none" stroke="#fff" stroke-linecap="round" stroke-linejoin="round" stroke-width="2.3" d="m26.43053,150.90829h182.17041"/><path fill="none" stroke="#fff" stroke-linecap="round" stroke-linejoin="round" stroke-width="2.3" d="m32.43568,187.76117h182.17041"/><path fill="none" stroke="#fff" stroke-linecap="round" stroke-linejoin="round" stroke-width="2.3" d="m32.43568,222.93906h182.17041"/><path fill="none" stroke="#fff" stroke-linecap="round" stroke-linejoin="round" stroke-width="2.3" d="m54.88112,81.85913c-4.85445,52.13199.8995,105.22958,16.80912,155.11124"/><path fill="none" stroke="#fff" stroke-linecap="round" stroke-linejoin="round" stroke-width="2.3" d="m94.60254,81.85913c-4.85491,52.13199.89904,105.22958,16.80867,155.11124"/><path fill="none" stroke="#fff" stroke-linecap="round" stroke-linejoin="round" stroke-width="2.3" d="m134.32349,81.85913c-4.85491,52.13199.8995,105.22958,16.80912,155.11124"/><path fill="none" stroke="#fff" stroke-linecap="round" stroke-linejoin="round" stroke-width="2.3" d="m174.04445,81.85913c-4.85442,52.13199.8995,105.22958,16.80912,155.11124"/><polyline fill="none" stroke="#231f20" stroke-linecap="round" stroke-linejoin="round" stroke-width="4.986" points="66.143 162.09 76.631 176.779 88.845 145.725"/><polyline fill="none" stroke="#231f20" stroke-linecap="round" stroke-linejoin="round" stroke-width="4.986" points="110.021 198.987 120.51 213.676 132.723 182.623"/><polyline fill="none" stroke="#231f20" stroke-linecap="round" stroke-linejoin="round" stroke-width="4.986" points="144.925 89.291 155.413 103.98 167.627 72.926"/></symbol><symbol id="f" viewBox="0 0 144 148"><path fill="#f9e8aa" d="m35.08996,20.91869c-4.84725,14.74937-7.56107,27.46928-8.24956,33.03576-.68878,5.56651-1.51477,14.89513-1.51477,14.89513,0,0-17.68384,11.49-22.38168,22.68733-4.69758,11.197-3.56038,22.22914,1.89737,26.9505,5.45763,4.72137,15.62065-2.10172,15.62065-2.10172,0,0,3.58884,10.79294,12.92878,9.97627,9.33994-.81666,15.79394-5.84703,17.64822-8.01707,1.85395-2.1703,3.66049-4.74568,3.66049-4.74568l24.97842.35424s8.43703,4.59005,14.91535,2.69746c4.45688-1.30205,7.61854-5.13648,7.61854-5.13648,0,0,2.77722,12.38413,16.7338,8.99328,11.97727-2.90997,12.99633-12.91838,12.99633-12.91838,0,0,13.52747-3.93307,11.92643-17.96854-1.60134-14.03543-16.49324-9.58195-16.49324-9.58195l-3.06125,1.05559s1.20885-33.03798-3.00076-48.43077c-4.20958-15.39249-14.40182-26.25809-34.46287-30.28188-20.06078-4.02412-30.21195-3.03382-39.78684,3.61804-9.57456,6.65213-11.9734,14.91886-11.9734,14.91886Z"/><path fill="#ffbea3" d="m62.98944,20.71903s2.12547,13.4353,9.4019,25.53115c4.60202,7.65009,11.453,9.98805,11.453,9.98805,0,0-4.16647,11.8147,5.85552,15.17072,2.03946.68295,3.89149-4.33907,9.15309-5.65105,6.13603-1.53002,15.16712.56689,16.65401,12.4852,1.48689,11.91831-8.36781,16.71971-13.04685,16.64538-4.67934-.0743-8.14253-1.19515-8.14253-1.19515,0,0-2.50368,24.08516-.20267,41.68036-.48791,4.92909-14.73393,12.36886-27.22861,12.62264s-10.31936-12.78945-10.31936-12.78945l-.71535-27.63182s-12.98987,1.78833-20.10868-10.11194c-6.48273-10.83695-8.98826-30.94022-3.50159-48.36968,3.71738-2.46077,12.12874-9.14124,12.12874-9.14124,0,0,6.97114.34012,12.31437-6.16315,5.34294-6.50325,6.30501-13.07003,6.30501-13.07003Z"/><path fill="none" stroke="#231f20" stroke-linecap="round" stroke-linejoin="round" stroke-width="2.298" d="m102.21176,111.51443s-1.11368-4.71937,1.59877-9.93777"/><path fill="none" stroke="#231f20" stroke-linecap="round" stroke-linejoin="round" stroke-width="2.298" d="m131.94189,107.58933s-6.24382,3.30409-15.44786,1.00906"/><path fill="none" stroke="#231f20" stroke-linecap="round" stroke-linejoin="round" stroke-width="2.298" d="m20.46196,116.38569s-1.37734-3.19724.54017-9.84014"/><path fill="none" stroke="#231f20" stroke-linecap="round" stroke-linejoin="round" stroke-width="2.298" d="m29.41733,50.49769s16.51241-8.45506,24.18244-22.99022"/><line x1="95.785" x2="104.989" y1="87.943" y2="71.878" fill="none" stroke="#231f20" stroke-linecap="round" stroke-linejoin="round" stroke-width="2.298"/><line x1="100.655" x2="106.959" y1="79.444" y2="84.36" fill="none" stroke="#231f20" stroke-linecap="round" stroke-linejoin="round" stroke-width="2.298"/><path fill="none" stroke="#231f20" stroke-linecap="round" stroke-linejoin="round" stroke-width="2.298" d="m58.55357,63.14355s1.94923-4.27073,6.55125-3.50572"/><path fill="none" stroke="#231f20" stroke-linecap="round" stroke-linejoin="round" stroke-width="2.298" d="m39.79371,62.69787s-2.1591-4.69133-6.06507-3.11067"/><path fill="none" stroke="#231f20" stroke-linecap="round" stroke-linejoin="round" stroke-width="2.298" d="m50.23383,71.87797s-11.41911-5.35506-13.61413,0c-2.19501,5.35506,8.54303,7.65009,12.37805,5.35506"/><path fill="none" stroke="#231f20" stroke-linecap="round" stroke-linejoin="round" stroke-width="1.999" d="m51.74418,87.77165s9.84997-2.18527,12.1174-11.79565c6.39097,6.25334,1.84473,18.68982-8.5473,14.23421"/><path fill="none" stroke="#231f20" stroke-linecap="round" stroke-linejoin="round" stroke-width="2.298" d="m55.85159,107.57507s12.95407-.61487,18.95772-6.6029"/></symbol><symbol id="g" viewBox="0 0 372 326"><path fill="#ffbea3" d="m150.98482,129.46493c-7.51073-8.74782-39.62062-65.89628-43.69438-73.01047-4.07353-7.11421-16.2683-11.03208-27.7921-14.77747-11.52391-3.74526-24.29806-6.52588-27.05433-10.43587-2.75628-3.90999,28.06477,1.72731,25.6626-.23069-2.40219-1.95823-18.00182-4.32366-22.00502-5.38604-4.00332-1.06227,3.7944-14.73708,3.7944-14.73708,0,0,6.13913-3.27814,18.04132-.43926,11.90223,2.83869,23.45266,7.02523,28.84543,8.85008,5.39289,1.82496,5.38743-14.2082,7.79813-17.44915,2.4107-3.24095,5.18227-1.23553,5.18227-1.23553,0,0-3.02966,13.38676.50969,20.17136,3.53911,6.78462,1.24159,8.48033,2.30286,14.33735,1.06139,5.85713,57.32451,71.39723,57.32451,71.39723,0,0,56.96829,17.22406,57.89834,18.03493l-18.7882,34.15125s-60.51479-20.49283-68.02552-29.24065Z"/><path fill="#ff6180" d="m314.86852,128.00783l-85.88893-10.74421-23.77283,48.34896s72.85222,29.16287,92.75785,11.9024"/><path fill="none" stroke="#231f20" stroke-linecap="round" stroke-linejoin="round" stroke-width="2.301" d="m58.73546,13.6587s21.12512,2.4427,27.4336,6.59346"/><path fill="none" stroke="#231f20" stroke-linecap="round" stroke-linejoin="round" stroke-width="2.301" d="m55.668,20.56569s21.02698.77252,26.61767,5.37464"/><path fill="none" stroke="#231f20" stroke-linecap="round" stroke-linejoin="round" stroke-width="2.301" d="m98.07211,23.25301s-.22651,9.59178,4.37468,14.19644"/><path fill="#ff6180" d="m372,307.97342s-6.89742-14.25518-19.28772-89.49996c-14.45436-87.77957-29.84082-96.38509-33.626-100.82611-3.78517-4.44102,1.87673-2.47702,1.05997-4.29097-2.72926-6.06084-5.64225-8.0503-5.64225-8.0503,0,0-16.88995-6.07738-43.45641.55966-13.75072,3.43531-16.36576,9.56473-16.36576,9.56473l-.22216,8.32323s-18.57829,33.417-18.6217,72.39021c-.01906,17.11529-3.08571,40.53025-3.08571,40.53025l-17.19281,67.46203s37.50942,21.45899,80.10394,21.85743c42.59453.39844,76.33661-18.02021,76.33661-18.02021Z"/><path fill="none" stroke="#231f20" stroke-linecap="round" stroke-linejoin="round" stroke-width="2.301" d="m254.68184,115.43046l-.22216,8.32323s-19.35842,26.18639-17.35756,56.22185"/><path fill="none" stroke="#231f20" stroke-linecap="round" stroke-linejoin="round" stroke-width="2.301" d="m317.43495,115.31255s-12.30077-5.02084-28.52239,0"/><path fill="#ffbea3" d="m246.23407,208.20571l-23.56408,27.77684s-2.06881-.32255-3.38752-.50663c-7.48527-1.04521-62.30698-7.25409-65.87264-8.45294-.17599-.05907-.36003-.1141-.53199-.17533-2.6874-.92539-4.89354-2.11136-6.81239-3.38581-4.96141-3.28159-7.99929-7.24542-12.13055-9.72636-.55549-.34587-1.13944-.63802-1.7438-.92385-5.4348-2.48407-9.40833-2.40665-12.30561-2.48084,0,0-.02677-.01424-.04737-.00792-1.19448-.01419-2.20455-.08525-3.08038-.3774,0,0-.01414.02684-.02041.00632-.74805-.24161-1.39032-.65062-1.92999-1.3834,0,0-1.81157,3.74911,2.02791,6.81439.15296.13265.32034.23847.49389.3648.26033.18952.54126.37267.8631.54326l.08051.04263c.27466.16263.59649.33318.93265.47689,3.00933,1.38813,4.86827,2.90578,5.81356,4.59239.00637.02052.0395.05527.02528.08211.06628.06947.08519.13106.13096.2069-.05682.10736-.10728.23528-.1846.34901-1.56228,2.95319-4.62525,5.62683-9.39251,7.72409-3.34062,1.47821-7.55089,2.68479-12.66845,3.49659-12.66227,2.05628-20.92798,3.36553-21.16144,9.61773,0,0,36.38492-5.31609,52.02647-1.77242,3.21874.72449,7.68101,2.16996,12.88338,4.08379,1.54384.56804,3.14516,1.17257,4.80817,1.81767,6.88971,2.68779,14.67594,5.95355,22.47154,9.39622.13405.07106.26192.1216.42284.20685,14.49602,6.39104,28.92567,13.29686,37.34303,17.73918,1.20721.63961,2.36865,1.20339,3.51118,1.70558,2.23769.99645,4.37915,1.75289,6.39582,2.32299.05364.02843.08051.04263.12151.02998,6.16385,1.78764,11.22786,1.8239,14.72631,1.44327,1.4478-.15949,2.79618-.63849,3.99197-1.41127.02434-.01579.05064-.02726.0747-.04323,1.41859-.86384,50.16715-50.23853,50.16715-50.23853l-44.4782-19.95354Z"/><path fill="#ff6180" stroke="#231f20" stroke-linecap="round" stroke-linejoin="round" stroke-width="2.301" d="m289.75337,131.93587c-11.78849,3.17188-51.25973,73.53145-51.25973,73.53145,0,0,45.16369,34.12046,49.02336,34.5873,1.61637.1955,26.82016-45.46113,29.91794-75.07666"/><path fill="#231f20" d="m58.29087,126.35867l42.15771,96.8288-43.80664,9.92566L10.11411,129.26555l48.17676-2.90688m1.46777-2.39426l-53.10596,3.2043,48.65967,108.60551,48.35596-10.95651-43.90967-100.8533h0Z"/><path fill="#5ca4ff" d="m172.85822,211.29514l.20292,7.4977-26.91258,4.70636-7.33139-5.98715s31.93938-6.21451,34.04106-6.21691Z"/><path fill="#5ca4ff" d="m55.16998,235.22254l1.94181,7.51981s50.35264-10.35278,60.62934-14.01783c2.14258-.76406,7.92914-6.79079,7.92914-6.79079h0l-1.62937-1.86722-68.87092,15.15603Z"/><polygon fill="#5ca4ff" points="6.141 127.221 53.729 231.628 55.368 235.33 48.396 238.223 0 130.858 6.141 127.221"/><line x1="244.764" x2="292.4" y1="195.926" y2="229.784" fill="none" stroke="#231f20" stroke-linecap="round" stroke-miterlimit="10" stroke-width="2.301"/><path fill="none" stroke="#231f20" stroke-linecap="round" stroke-miterlimit="10" stroke-width="2.301" d="m125.39834,222.31509s-7.00299,8.00946-21.72981,10.20926c-13.42907,2.00595-13.95818,2.98547-16.12274,3.89697"/></symbol></defs><use width="720.604" height="527.815" transform="translate(495.838 161.742) scale(1.17363)" xlink:href="#a"/><use width="636.226" height="384.663" transform="translate(753 288.417) scale(.87233)" xlink:href="#b"/><use width="251.806" height="274.277" transform="translate(562.521 267.998) scale(.58721)" xlink:href="#c"/><use width="285.152" height="167.384" transform="translate(520 497.537) scale(.75048)" xlink:href="#d"/><use width="395.15" height="119.594" transform="translate(646.337 714.317) scale(.98865)" xlink:href="#e"/><use width="144" height="148" transform="translate(1404.85 470.612) scale(1.15003)" xlink:href="#f"/><use width="372" height="326" transform="translate(1163.19 495.535) scale(1.15003)" xlink:href="#g"/><use width="98.618" height="127.063" transform="translate(254.293 404.173) scale(1.23161)" xlink:href="#h"/><use width="391.294" height="343.427" transform="translate(201 438.878) scale(1.23844)" xlink:href="#i"/></svg>